<?xml version="1.0" encoding="UTF-8" standalone="no"?>
<svg xmlns="http://www.w3.org/2000/svg" height="477" width="800" xml:space="preserve" id="svg2" version="1.1"><title id="title848">Logo of Graduate School of Architecture Design Art</title><g transform="matrix(3.3862494,0,0,-3.3862494,-0.33455281,477.2509)" id="g10"><path id="path12" style="fill:#d91920;fill-opacity:1;fill-rule:nonzero;stroke:none" d="M 0,0 H 236.421 V 141.014 H 0 Z"/><g transform="translate(44.231,57.3261)" id="g14"><path id="path16" style="fill:#ffffff;fill-opacity:1;fill-rule:nonzero;stroke:none" d="M 0,0 H 15.66 L 10.26,24.45 8.1,40.95 H 7.56 L 5.265,24.3 Z M 18.63,-15.3 H -3.645 l -5.535,-24 H -26.055 L 1.35,66.45 H 14.715 L 42.255,-39.3 h -17.82 z"/></g><g transform="translate(117.1299,107.1259)" id="g26"><path id="path28" style="fill:#ffffff;fill-opacity:1;fill-rule:nonzero;stroke:none" d="M 0,0 C -1.441,0 -2.902,-0.025 -4.388,-0.074 -5.873,-0.126 -7.02,-0.25 -7.83,-0.449 V -72.75 c 0.27,-0.101 0.743,-0.176 1.417,-0.225 0.676,-0.051 1.395,-0.1 2.161,-0.15 0.763,-0.051 1.484,-0.101 2.159,-0.149 0.676,-0.052 1.148,-0.076 1.418,-0.076 4.05,0 7.379,1.05 9.99,3.151 2.609,2.099 4.657,4.898 6.143,8.399 1.485,3.499 2.518,7.524 3.104,12.075 0.585,4.549 0.878,9.324 0.878,14.326 0,4.598 -0.249,9.048 -0.743,13.349 -0.495,4.299 -1.44,8.074 -2.834,11.325 -1.397,3.248 -3.375,5.85 -5.941,7.8 C 7.357,-0.975 4.05,0 0,0 m -24.84,15.9 c 1.62,0.3 3.443,0.525 5.467,0.675 2.025,0.151 4.095,0.3 6.21,0.45 2.114,0.15 4.162,0.248 6.143,0.3 1.978,0.049 3.733,0.075 5.265,0.075 7.469,0 13.702,-1.275 18.698,-3.825 4.994,-2.55 8.998,-6.15 12.015,-10.8 3.014,-4.65 5.151,-10.225 6.413,-16.724 1.258,-6.502 1.888,-13.751 1.888,-21.75 0,-7.301 -0.607,-14.277 -1.822,-20.926 -1.215,-6.651 -3.354,-12.501 -6.412,-17.55 -3.061,-5.051 -7.201,-9.075 -12.42,-12.075 -5.221,-3 -11.792,-4.5 -19.71,-4.5 -1.171,0 -2.747,0.052 -4.725,0.15 -1.981,0.101 -4.05,0.225 -6.21,0.375 -2.16,0.151 -4.231,0.3 -6.21,0.451 -1.981,0.149 -3.51,0.325 -4.59,0.524 z"/></g><g transform="translate(180.983,57.3261)" id="g30"><path id="path32" style="fill:#ffffff;fill-opacity:1;fill-rule:nonzero;stroke:none" d="m 0,0 h 15.66 l -5.399,24.45 -2.16,16.5 H 7.561 L 5.266,24.3 Z M 18.631,-15.3 H -3.645 l -5.535,-24 H -26.055 L 1.351,66.45 H 14.716 L 42.256,-39.3 h -17.82 z"/></g></g></svg>