<?xml version="1.0" standalone="no"?>
<!DOCTYPE svg PUBLIC "-//W3C//DTD SVG 20010904//EN"
 "http://www.w3.org/TR/2001/REC-SVG-20010904/DTD/svg10.dtd">
<svg version="1.0" xmlns="http://www.w3.org/2000/svg"
 width="512.000000pt" height="512.000000pt" viewBox="0 0 512.000000 512.000000"
 preserveAspectRatio="xMidYMid meet">

<g transform="translate(0.000000,512.000000) scale(0.100000,-0.100000)"
fill="#000000" stroke="none">
<path d="M0 2560 l0 -2560 2560 0 2560 0 0 2560 0 2560 -2560 0 -2560 0 0
-2560z m3140 2078 c0 -4 -74 -264 -491 -1721 l-353 -1237 -219 0 c-203 0 -218
1 -213 18 3 9 192 671 421 1470 228 800 417 1458 421 1463 4 8 434 14 434 7z
m1070 -921 c234 -292 424 -537 424 -543 -1 -6 -191 -248 -423 -537 l-421 -527
-215 0 c-118 0 -215 2 -215 5 0 3 189 242 420 530 231 289 420 527 420 531 0
3 -189 241 -420 530 -231 289 -420 529 -420 534 0 6 84 10 213 10 l212 0 425
-533z m-2566 511 c-4 -6 -190 -239 -412 -517 -223 -278 -410 -513 -415 -523
-9 -13 64 -109 404 -535 228 -285 418 -524 423 -530 6 -10 -38 -13 -207 -13
l-215 0 -413 517 c-228 284 -419 524 -426 533 -10 15 48 92 413 548 l425 532
215 0 c164 0 213 -3 208 -12z m-239 -3067 l60 -1 23 -83 c12 -45 53 -176 90
-291 l68 -209 76 244 c43 134 83 265 90 292 l12 47 93 0 c88 0 93 -1 84 -19
-8 -15 -242 -662 -257 -708 -5 -18 -193 -18 -199 0 -28 83 -223 626 -240 669
-21 51 -21 57 -7 61 10 2 24 2 32 1 8 -1 42 -3 75 -3z m1306 -367 l0 -369 -81
-3 -81 -3 7 161 7 160 -167 0 -167 0 2 -157 1 -158 -81 -3 -81 -3 0 371 0 370
83 0 82 0 -3 -140 -3 -140 167 0 167 0 -7 139 -7 140 58 3 c32 2 68 3 81 2
l23 -1 0 -369z m1029 66 l-1 -303 186 5 185 5 0 -74 0 -73 -265 0 -265 0 0
370 0 369 58 3 c31 2 68 3 80 2 l24 -1 -2 -303z m-424 268 c64 -34 117 -95
146 -167 31 -80 31 -242 -1 -322 -46 -119 -118 -181 -235 -206 -35 -7 -132
-13 -226 -13 l-165 0 0 371 0 370 215 -3 c212 -3 216 -3 266 -30z"/>
<path d="M3000 1027 c-3 -3 -4 -110 -2 -237 l3 -232 97 4 c113 5 150 20 187
77 55 82 54 245 -1 319 -39 50 -77 65 -184 70 -52 2 -97 2 -100 -1z"/>
</g>
</svg>
